<?xml version="1.0" encoding="UTF-8"?>
<svg version="1.1" viewBox="0 0 1024 1024" width="1024" height="1024" xmlns="http://www.w3.org/2000/svg">
<path transform="translate(0)" d="m0 0h1024v1024h-1024z" fill="#FDFDFD"/>
<path transform="translate(225,364)" d="m0 0h144l27 4 24 7 18 8 16 10 11 9 14 14 12 17 7 15 6 21 2 12v36l-4 21-5 15-10 19-10 13-11 11-15 11-14 8-18 8-24 7-26 4h-144v-6l23-1 7-2 3-4v-244l-1-3-11-3-21-1z" fill="#FDFCFC"/>
<path transform="translate(527,365)" d="m0 0h148l31 3 25 6 17 8 9 7 7 6 7 11 4 10 1 5v18l-4 13-5 10-7 8-13 9-16 7-17 5-23 4 36 8 20 7 19 9 14 11 8 9 7 14 1 5v19l-4 14-6 10-9 10-14 9-17 7-23 5-25 3-28 1h-139l-4-1v-7l1-1 19-1 9-2 4-4v-241l-2-3-7-2-23-2-1-1z" fill="#DE9187"/>
<path transform="translate(225,364)" d="m0 0h144l27 4 24 7 18 8 16 10 11 9 14 14 12 17 7 15 6 21 2 12v36l-4 21-5 15-10 19-10 13-11 11-15 11-14 8-18 8-24 7-26 4h-144v-6l23-1 7-2 3-4v-244l-1-3-11-3-21-1zm81 7-1 1v250l1 5 6 1h27l21-1 20-3 16-5 15-8 9-7 7-6 9-11 10-19 6-21 3-21 1-14v-19l-2-22-5-23-7-19-7-13-8-11-9-10-13-10-16-8-18-5-10-1z" fill="#21223A"/>
<path transform="translate(624,501)" d="m0 0h23l19 2 16 5 12 7 7 7 8 14 3 11 1 8v12l-3 15-4 9-6 10-8 8-14 8-15 5-14 2h-25l-1-1v-121z" fill="#FEFEFE"/>
<path transform="translate(623,376)" d="m0 0h23l12 2 13 5 8 6 5 5 4 5 6 12 3 13v23l-4 15-5 9-7 8-10 6-11 4-11 2h-26z" fill="#FEFEFE"/>
</svg>
